#Comment line ignore any data following # character 
#Hierarchical Translation and Rotation (.htr) file 
[Header]	
#Header keywords are followed by a single value 
FileType HTR		#Single word string
DataType HTRS		#Translation followed by rotation and scale data
FileVersion 1		#integer
NumSegments 84		#integer
NumFrames 2		#integer
DataFrameRate 30		#integer, data frame rate in this file
EulerRotationOrder ZYX
CalibrationUnits mm
RotationUnits Degrees
GlobalAxisofGravity Y
BoneLengthAxis Y
ScaleFactor 1.00
[SegmentNames&Hierarchy]
#CHILD	PARENT
MASTER GLOBAL
root MASTER
chest root
L_mid_tent01 root
R_mid_tent01 root
spine01 root
Bip01_Neck chest
L_humerus chest
R_humerus chest
weapon_bone chest
Bip01_Head Bip01_Neck
eye_left_bone Bip01_Head
eye_right_bone Bip01_Head
L_forearm L_humerus
L_front_hand L_forearm
L_weapon_bone L_forearm
L_front_hand01_01 L_front_hand
L_front_hand02_01 L_front_hand
L_front_hand03_01 L_front_hand
L_front_hand01_02 L_front_hand01_01
L_front_hand02_02 L_front_hand02_01
L_front_hand03_02 L_front_hand03_01
R_forearm R_humerus
R_front_hand R_forearm
R_weapon_bone R_forearm
R_front_hand01_01 R_front_hand
R_front_hand02_01 R_front_hand
R_front_hand03_01 R_front_hand
R_front_hand01_02 R_front_hand01_01
R_front_hand02_02 R_front_hand02_01
R_front_hand03_02 R_front_hand03_01
null_rope01_connect L_mid_tent01
Rope1_Seg01 null_rope01_connect
Rope1_Seg02 Rope1_Seg01
Rope1_Seg03 Rope1_Seg02
Rope1_Seg04 Rope1_Seg03
Rope1_Seg05 Rope1_Seg04
Rope1_Seg06 Rope1_Seg05
Rope1_Seg07 Rope1_Seg06
Rope1_Seg09 Rope1_Seg07
L_mid_hand01 Rope1_Seg09
L_mid_hand02 Rope1_Seg09
L_mid_hand03 Rope1_Seg09
null_rope02_connect R_mid_tent01
Rope2_Seg01 null_rope02_connect
Rope2_Seg02 Rope2_Seg01
Rope2_Seg03 Rope2_Seg02
Rope2_Seg04 Rope2_Seg03
Rope2_Seg05 Rope2_Seg04
Rope2_Seg06 Rope2_Seg05
Rope2_Seg07 Rope2_Seg06
Rope2_Seg09 Rope2_Seg07
R_mid_hand01 Rope2_Seg09
R_mid_hand02 Rope2_Seg09
R_mid_hand03 Rope2_Seg09
spine02 spine01
spine03 spine02
pelvis spine03
null_rope03_connect pelvis
null_rope04_connect pelvis
Rope3_Seg01 null_rope03_connect
Rope3_Seg02 Rope3_Seg01
Rope3_Seg03 Rope3_Seg02
Rope3_Seg04 Rope3_Seg03
Rope3_Seg05 Rope3_Seg04
Rope3_Seg06 Rope3_Seg05
Rope3_Seg07 Rope3_Seg06
Rope3_Seg08 Rope3_Seg07
Rope3_Seg09 Rope3_Seg08
R_rear_hand01 Rope3_Seg09
R_rear_hand02 Rope3_Seg09
R_rear_hand03 Rope3_Seg09
Rope4_Seg01 null_rope04_connect
Rope4_Seg02 Rope4_Seg01
Rope4_Seg03 Rope4_Seg02
Rope4_Seg04 Rope4_Seg03
Rope4_Seg05 Rope4_Seg04
Rope4_Seg06 Rope4_Seg05
Rope4_Seg07 Rope4_Seg06
Rope4_Seg08 Rope4_Seg07
Rope4_Seg09 Rope4_Seg08
L_rear_hand01 Rope4_Seg09
L_rear_hand02 Rope4_Seg09
L_rear_hand03 Rope4_Seg09
[BasePosition]
#SegmentName Tx, Ty, Tz, Rx, Ry, Rz, BoneLength
MASTER 0.000000 0.000000 0.000000 -90.000000 0.000000 0.000000 10.000000 
root 0.000000 0.000000 0.000000 0.000000 0.000000 0.000000 10.000000 
chest 0.000000 0.000000 0.000000 0.000000 0.000000 0.000000 10.000000 
L_mid_tent01 0.000000 0.000000 0.000000 0.000000 0.000000 0.000000 10.000000 
R_mid_tent01 0.000000 0.000000 0.000000 0.000000 0.000000 0.000000 10.000000 
spine01 0.000000 0.000000 0.000000 0.000000 0.000000 0.000000 10.000000 
Bip01_Neck 0.000000 0.000000 0.000000 0.000000 0.000000 0.000000 10.000000 
L_humerus 0.000000 0.000000 0.000000 0.000000 0.000000 0.000000 10.000000 
R_humerus 0.000000 0.000000 0.000000 0.000000 0.000000 0.000000 10.000000 
weapon_bone 0.000000 0.000000 0.000000 0.000000 0.000000 0.000000 10.000000 
Bip01_Head 0.000000 0.000000 0.000000 0.000000 0.000000 0.000000 10.000000 
eye_left_bone 0.000000 0.000000 0.000000 0.000000 0.000000 0.000000 10.000000 
eye_right_bone 0.000000 0.000000 0.000000 0.000000 0.000000 0.000000 10.000000 
L_forearm 0.000000 0.000000 0.000000 0.000000 0.000000 0.000000 10.000000 
L_front_hand 0.000000 0.000000 0.000000 0.000000 0.000000 0.000000 10.000000 
L_weapon_bone 0.000000 0.000000 0.000000 0.000000 0.000000 0.000000 10.000000 
L_front_hand01_01 0.000000 0.000000 0.000000 0.000000 0.000000 0.000000 10.000000 
L_front_hand02_01 0.000000 0.000000 0.000000 0.000000 0.000000 0.000000 10.000000 
L_front_hand03_01 0.000000 0.000000 0.000000 0.000000 0.000000 0.000000 10.000000 
L_front_hand01_02 0.000000 0.000000 0.000000 0.000000 0.000000 0.000000 10.000000 
L_front_hand02_02 0.000000 0.000000 0.000000 0.000000 0.000000 0.000000 10.000000 
L_front_hand03_02 0.000000 0.000000 0.000000 0.000000 0.000000 0.000000 10.000000 
R_forearm 0.000000 0.000000 0.000000 0.000000 0.000000 0.000000 10.000000 
R_front_hand 0.000000 0.000000 0.000000 0.000000 0.000000 0.000000 10.000000 
R_weapon_bone 0.000000 0.000000 0.000000 0.000000 0.000000 0.000000 10.000000 
R_front_hand01_01 0.000000 0.000000 0.000000 0.000000 0.000000 0.000000 10.000000 
R_front_hand02_01 0.000000 0.000000 0.000000 0.000000 0.000000 0.000000 10.000000 
R_front_hand03_01 0.000000 0.000000 0.000000 0.000000 0.000000 0.000000 10.000000 
R_front_hand01_02 0.000000 0.000000 0.000000 0.000000 0.000000 0.000000 10.000000 
R_front_hand02_02 0.000000 0.000000 0.000000 0.000000 0.000000 0.000000 10.000000 
R_front_hand03_02 0.000000 0.000000 0.000000 0.000000 0.000000 0.000000 10.000000 
null_rope01_connect 0.000000 0.000000 0.000000 0.000000 0.000000 0.000000 10.000000 
Rope1_Seg01 0.000000 0.000000 0.000000 0.000000 0.000000 0.000000 10.000000 
Rope1_Seg02 0.000000 0.000000 0.000000 0.000000 0.000000 0.000000 10.000000 
Rope1_Seg03 0.000000 0.000000 0.000000 0.000000 0.000000 0.000000 10.000000 
Rope1_Seg04 0.000000 0.000000 0.000000 0.000000 0.000000 0.000000 10.000000 
Rope1_Seg05 0.000000 0.000000 0.000000 0.000000 0.000000 0.000000 10.000000 
Rope1_Seg06 0.000000 0.000000 0.000000 0.000000 0.000000 0.000000 10.000000 
Rope1_Seg07 0.000000 0.000000 0.000000 0.000000 0.000000 0.000000 10.000000 
Rope1_Seg09 0.000000 0.000000 0.000000 0.000000 0.000000 0.000000 10.000000 
L_mid_hand01 0.000000 0.000000 0.000000 0.000000 0.000000 0.000000 10.000000 
L_mid_hand02 0.000000 0.000000 0.000000 0.000000 0.000000 0.000000 10.000000 
L_mid_hand03 0.000000 0.000000 0.000000 0.000000 0.000000 0.000000 10.000000 
null_rope02_connect 0.000000 0.000000 0.000000 0.000000 0.000000 0.000000 10.000000 
Rope2_Seg01 0.000000 0.000000 0.000000 0.000000 0.000000 0.000000 10.000000 
Rope2_Seg02 0.000000 0.000000 0.000000 0.000000 0.000000 0.000000 10.000000 
Rope2_Seg03 0.000000 0.000000 0.000000 0.000000 0.000000 0.000000 10.000000 
Rope2_Seg04 0.000000 0.000000 0.000000 0.000000 0.000000 0.000000 10.000000 
Rope2_Seg05 0.000000 0.000000 0.000000 0.000000 0.000000 0.000000 10.000000 
Rope2_Seg06 0.000000 0.000000 0.000000 0.000000 0.000000 0.000000 10.000000 
Rope2_Seg07 0.000000 0.000000 0.000000 0.000000 0.000000 0.000000 10.000000 
Rope2_Seg09 0.000000 0.000000 0.000000 0.000000 0.000000 0.000000 10.000000 
R_mid_hand01 0.000000 0.000000 0.000000 0.000000 0.000000 0.000000 10.000000 
R_mid_hand02 0.000000 0.000000 0.000000 0.000000 0.000000 0.000000 10.000000 
R_mid_hand03 0.000000 0.000000 0.000000 0.000000 0.000000 0.000000 10.000000 
spine02 0.000000 0.000000 0.000000 0.000000 0.000000 0.000000 10.000000 
spine03 0.000000 0.000000 0.000000 0.000000 0.000000 0.000000 10.000000 
pelvis 0.000000 0.000000 0.000000 0.000000 0.000000 0.000000 10.000000 
null_rope03_connect 0.000000 0.000000 0.000000 0.000000 0.000000 0.000000 10.000000 
null_rope04_connect 0.000000 0.000000 0.000000 0.000000 0.000000 0.000000 10.000000 
Rope3_Seg01 0.000000 0.000000 0.000000 0.000000 0.000000 0.000000 10.000000 
Rope3_Seg02 0.000000 0.000000 0.000000 0.000000 0.000000 0.000000 10.000000 
Rope3_Seg03 0.000000 0.000000 0.000000 0.000000 0.000000 0.000000 10.000000 
Rope3_Seg04 0.000000 0.000000 0.000000 0.000000 0.000000 0.000000 10.000000 
Rope3_Seg05 0.000000 0.000000 0.000000 0.000000 0.000000 0.000000 10.000000 
Rope3_Seg06 0.000000 0.000000 0.000000 0.000000 0.000000 0.000000 10.000000 
Rope3_Seg07 0.000000 0.000000 0.000000 0.000000 0.000000 0.000000 10.000000 
Rope3_Seg08 0.000000 0.000000 0.000000 0.000000 0.000000 0.000000 10.000000 
Rope3_Seg09 0.000000 0.000000 0.000000 0.000000 0.000000 0.000000 10.000000 
R_rear_hand01 0.000000 0.000000 0.000000 0.000000 0.000000 0.000000 10.000000 
R_rear_hand02 0.000000 0.000000 0.000000 0.000000 0.000000 0.000000 10.000000 
R_rear_hand03 0.000000 0.000000 0.000000 0.000000 0.000000 0.000000 10.000000 
Rope4_Seg01 0.000000 0.000000 0.000000 0.000000 0.000000 0.000000 10.000000 
Rope4_Seg02 0.000000 0.000000 0.000000 0.000000 0.000000 0.000000 10.000000 
Rope4_Seg03 0.000000 0.000000 0.000000 0.000000 0.000000 0.000000 10.000000 
Rope4_Seg04 0.000000 0.000000 0.000000 0.000000 0.000000 0.000000 10.000000 
Rope4_Seg05 0.000000 0.000000 0.000000 0.000000 0.000000 0.000000 10.000000 
Rope4_Seg06 0.000000 0.000000 0.000000 0.000000 0.000000 0.000000 10.000000 
Rope4_Seg07 0.000000 0.000000 0.000000 0.000000 0.000000 0.000000 10.000000 
Rope4_Seg08 0.000000 0.000000 0.000000 0.000000 0.000000 0.000000 10.000000 
Rope4_Seg09 0.000000 0.000000 0.000000 0.000000 0.000000 0.000000 10.000000 
L_rear_hand01 0.000000 0.000000 0.000000 0.000000 0.000000 0.000000 10.000000 
L_rear_hand02 0.000000 0.000000 0.000000 0.000000 0.000000 0.000000 10.000000 
L_rear_hand03 0.000000 0.000000 0.000000 0.000000 0.000000 0.000000 10.000000 
#Beginning of Data. Separated by tabs
#Fr	Tx	Ty	Tz	Rx	Ry	Rz	SF
[MASTER]
17 -0.000450 2997.624268 4021.308838 0.001660 0.001660 0.001660 5015.643066
18 -0.000472 3144.184814 4075.877197 0.001660 0.001660 0.001660 5147.686035
[root]
17 -33.978989 -40.306091 1492.708130 -92.334206 -15.005075 -92.414436 1493.638794
18 -31.457048 -33.139038 1486.302490 -93.923523 -16.962055 -92.223732 1487.004639
[chest]
17 -84.512650 -34.090519 0.000000 -1.549219 0.440206 -168.319351 91.129311
18 -84.512650 -34.090519 0.000000 -1.632452 0.603870 -170.949173 91.129311
[L_mid_tent01]
17 27.299149 22.179411 -249.918701 2.919383 30.150545 80.390610 252.381714
18 27.299154 22.179430 -249.918701 3.138458 31.673603 80.613213 252.381714
[R_mid_tent01]
17 23.228794 24.509907 226.238495 157.728607 -43.333126 90.921776 228.744751
18 23.228794 24.509907 226.238495 156.135498 -44.642025 93.525375 228.744751
[spine01]
17 -0.361383 -0.195265 0.000000 0.001950 0.001306 22.396288 0.410763
18 -0.361383 -0.195265 0.000000 0.001950 0.001307 22.336634 0.410763
[Bip01_Neck]
17 165.484543 71.581718 0.000119 176.643677 -1.657967 43.431911 180.302734
18 165.484543 71.581718 0.000119 176.643677 -1.657967 43.431911 180.302734
[L_humerus]
17 -13.983130 -135.272980 -120.471481 -6.329191 66.413780 83.621758 181.680161
18 -13.983130 -135.272980 -120.471481 -6.186565 66.864738 83.782639 181.680161
[R_humerus]
17 -13.983309 -135.273102 125.287651 26.656214 -67.324455 69.028854 184.909012
18 -13.983309 -135.273102 125.287651 26.858740 -67.796906 68.820015 184.909012
[weapon_bone]
17 235.964890 -300.705902 0.000000 0.000000 -89.951546 -128.212341 382.234833
18 235.964890 -300.705902 0.000000 0.000000 -89.951546 -128.212341 382.234833
[Bip01_Head]
17 213.370956 185.920547 9.132748 4.439538 -0.278524 -43.901749 283.155487
18 213.339218 186.009216 7.986832 4.443141 0.096322 -43.897816 283.155151
[eye_left_bone]
17 -24.626970 125.451866 -64.772606 0.000000 -90.000000 -99.840431 143.318359
18 -24.626970 125.451866 -64.772606 0.000000 -90.000000 -99.840431 143.318359
[eye_right_bone]
17 -24.626970 125.451866 64.327362 0.000000 -89.965736 80.156380 143.117676
18 -24.626970 125.451866 64.327362 0.000000 -89.965736 80.156380 143.117676
[L_forearm]
17 322.776093 0.000000 -0.000119 0.000413 -0.002311 -110.253998 322.776093
18 322.776093 0.000000 -0.000119 0.000410 -0.002311 -110.105110 322.776093
[L_front_hand]
17 241.149185 -0.042021 -3.300071 -178.667953 -1.835447 -27.422350 241.171753
18 241.149185 -0.042021 -3.300071 -178.667953 -1.835447 -27.422350 241.171753
[L_weapon_bone]
17 156.183838 0.000000 0.000000 0.000014 0.000007 0.000001 156.183838
18 156.183838 0.000000 0.000000 0.000014 0.000007 0.000001 156.183838
[L_front_hand01_01]
17 86.095154 20.947098 -0.655860 -0.282467 -0.528169 66.067474 88.609184
18 86.095154 20.947098 -0.655860 -0.289102 -0.524108 66.611076 88.609184
[L_front_hand02_01]
17 86.935165 -11.437475 24.513514 141.960785 -54.937954 -46.642345 91.046425
18 86.935165 -11.437475 24.513514 142.580521 -55.269005 -47.395390 91.046425
[L_front_hand03_01]
17 86.637497 -14.123976 -20.424902 -142.303543 53.163303 -48.671032 90.126129
18 86.637497 -14.123976 -20.424902 -142.879883 53.494282 -49.391994 90.126129
[L_front_hand01_02]
17 71.020905 -0.000179 0.000030 0.000315 -0.002326 -105.421257 71.020905
18 71.020905 -0.000179 0.000030 0.000315 -0.002326 -105.441971 71.020905
[L_front_hand02_02]
17 71.020927 -0.000119 0.000060 0.000315 -0.002326 -105.421257 71.020927
18 71.020927 -0.000119 0.000060 0.000315 -0.002326 -105.441971 71.020927
[L_front_hand03_02]
17 71.020905 -0.000060 0.000060 0.000315 -0.002326 -105.421257 71.020905
18 71.020905 -0.000060 0.000060 0.000315 -0.002326 -105.441971 71.020905
[R_forearm]
17 322.776428 -0.000060 0.000030 0.201617 0.066649 -108.909523 322.776428
18 322.776428 -0.000060 0.000030 0.201705 0.066382 -108.757500 322.776428
[R_front_hand]
17 238.847015 -0.006795 2.210259 -2.635298 -10.645461 -26.312506 238.857239
18 238.847015 -0.006795 2.210259 -2.635298 -10.645461 -26.312506 238.857239
[R_weapon_bone]
17 155.664093 0.002503 -0.000030 0.003487 0.001180 -90.988930 155.664078
18 155.664093 0.002503 -0.000030 0.003487 0.001180 -90.988930 155.664078
[R_front_hand01_01]
17 87.624611 14.231146 22.918642 -139.271561 -53.333107 43.426708 91.683487
18 87.624611 14.231146 22.918642 -140.217056 -53.925083 44.603291 91.683487
[R_front_hand02_01]
17 89.356956 14.367283 -19.491137 140.080994 51.767307 46.104946 92.579636
18 89.356956 14.367283 -19.491137 140.984955 52.347897 47.247559 92.579636
[R_front_hand03_01]
17 87.286232 -22.307278 -0.143439 0.071479 -0.448702 -63.787704 90.091743
18 87.286232 -22.307278 -0.143439 0.075044 -0.448119 -64.698715 90.091743
[R_front_hand01_02]
17 71.020905 0.000060 0.000119 0.002323 -0.000334 106.381714 71.020905
18 71.020905 0.000060 0.000119 0.002323 -0.000334 106.381714 71.020905
[R_front_hand02_02]
17 71.020844 -0.000030 -0.000119 0.002323 -0.000334 106.381714 71.020836
18 71.020844 -0.000030 -0.000119 0.002323 -0.000334 106.381714 71.020836
[R_front_hand03_02]
17 71.020905 0.000000 0.000030 0.002323 -0.000334 106.381714 71.020905
18 71.020905 0.000000 0.000030 0.002323 -0.000334 106.381714 71.020905
[null_rope01_connect]
17 328.732483 0.000000 -0.000238 -147.396255 -56.228024 172.351212 328.732483
18 328.732483 0.000000 -0.000238 -146.591141 -53.217083 173.514053 328.732483
[Rope1_Seg01]
17 0.000051 -0.000013 0.000051 92.337555 -18.301542 -160.574799 0.000073
18 0.000049 -0.000011 0.000045 80.628639 -25.913984 -150.030396 0.000067
[Rope1_Seg02]
17 139.999863 -0.000179 0.000000 7.375576 -8.897057 -7.073320 139.999863
18 139.999863 -0.000179 0.000000 6.560011 -5.338524 -8.151070 139.999863
[Rope1_Seg03]
17 139.999924 0.000060 -0.000060 22.581818 -29.366898 -21.918764 139.999924
18 139.999924 0.000060 -0.000060 41.813747 -28.506250 -41.155888 139.999924
[Rope1_Seg04]
17 139.999924 -0.000060 -0.000119 11.853571 -45.736702 -15.052896 139.999924
18 139.999924 -0.000060 -0.000119 47.916348 -66.680382 -54.566532 139.999924
[Rope1_Seg05]
17 139.999832 0.000119 -0.000060 -18.800404 -47.784775 7.214885 139.999832
18 139.999832 0.000119 -0.000060 -16.574965 -49.540859 -10.412775 139.999832
[Rope1_Seg06]
17 139.999954 0.000119 -0.000060 -18.793819 -22.363827 -4.828774 139.999954
18 139.999954 0.000119 -0.000060 -4.681578 -6.328309 -3.701111 139.999954
[Rope1_Seg07]
17 139.999985 0.000060 0.000000 -7.542027 -6.249398 -3.905514 139.999985
18 139.999985 0.000060 0.000000 -0.121839 -0.151771 -0.106984 139.999985
[Rope1_Seg09]
17 121.602913 0.000119 -0.000089 -89.793175 -1.359789 0.847147 121.602913
18 121.602913 0.000119 -0.000089 -89.793175 -1.359789 0.847147 121.602913
[L_mid_hand01]
17 103.859421 1.038730 8.195221 126.075401 -65.098549 -33.991913 104.187431
18 103.859421 1.038730 8.195221 129.242493 -66.931091 -37.458961 104.187431
[L_mid_hand02]
17 105.572853 -4.139662 -10.864139 -166.035263 42.723965 -69.273842 106.211075
18 105.572853 -4.139662 -10.864139 -168.136536 43.236561 -72.353096 106.211075
[L_mid_hand03]
17 104.641464 17.579376 -3.913581 -7.014418 17.452778 71.596474 106.179977
18 104.641464 17.579376 -3.913581 -6.285013 17.719217 74.000862 106.179977
[null_rope02_connect]
17 328.732849 0.000179 -0.000119 -135.687332 46.030617 21.098595 328.732849
18 328.732849 0.000179 -0.000119 -134.134720 45.622849 22.728998 328.732849
[Rope2_Seg01]
17 0.000064 0.000051 0.000000 -35.417271 3.698982 -13.565835 0.000081
18 0.000065 0.000045 0.000000 -23.845377 1.867924 -22.356033 0.000079
[Rope2_Seg02]
17 139.999741 -0.000060 -0.000119 -4.140957 2.145663 1.800133 139.999756
18 139.999741 -0.000060 -0.000119 -2.578250 2.928679 -0.084050 139.999756
[Rope2_Seg03]
17 140.000107 0.000030 0.000000 -12.422926 5.414568 5.286383 140.000107
18 140.000107 0.000030 0.000000 -29.160439 13.904589 0.887279 140.000107
[Rope2_Seg04]
17 139.999802 0.000000 -0.000060 -32.035736 31.330608 99.428108 139.999802
18 139.999802 0.000000 -0.000060 -17.040760 46.637856 136.150986 139.999802
[Rope2_Seg05]
17 139.999985 -0.000060 0.000119 5.057084 -23.186266 45.412781 139.999985
18 139.999985 -0.000060 0.000119 21.745157 0.585269 41.111275 139.999985
[Rope2_Seg06]
17 139.999893 -0.000030 -0.000119 27.192921 -3.868193 27.305595 139.999893
18 139.999893 -0.000030 -0.000119 11.546319 4.996769 16.485752 139.999893
[Rope2_Seg07]
17 139.999893 0.000060 -0.000060 15.683985 3.686336 11.881658 139.999893
18 139.999893 0.000060 -0.000060 2.537014 1.767701 3.618423 139.999893
[Rope2_Seg09]
17 121.338966 0.000089 -0.000060 33.793236 -1.359788 -0.847141 121.338966
18 121.338966 0.000089 -0.000060 33.793236 -1.359788 -0.847141 121.338966
[R_mid_hand01]
17 104.680779 11.144459 -10.335981 -28.450209 39.729855 52.441807 105.778534
18 104.680779 11.144459 -10.335981 -24.361835 42.075401 58.684284 105.778534
[R_mid_hand02]
17 104.070427 2.443552 8.231699 63.903580 -55.672924 22.558943 104.424065
18 104.070427 2.443552 8.231699 59.930573 -60.321301 27.236141 104.424065
[R_mid_hand03]
17 106.028137 -11.221827 -5.996406 -173.263687 14.341302 -61.789295 106.788818
18 106.028137 -11.221827 -5.996406 -174.631485 14.897616 -67.203407 106.788818
[spine02]
17 129.756927 0.001550 0.000119 0.441937 -4.035957 -14.121504 129.756927
18 129.756927 0.001550 0.000119 0.426774 -4.037690 -13.900320 129.756927
[spine03]
17 78.614151 0.081329 -4.899012 1.945033 3.807184 17.229744 78.766693
18 78.614159 0.081310 -4.899013 1.935789 3.811190 17.094372 78.766701
[pelvis]
17 169.435242 0.051022 0.000000 -0.066124 -0.178958 15.612559 169.435257
18 169.435242 0.051022 0.000000 -0.064051 -0.179340 15.331391 169.435257
[null_rope03_connect]
17 -1.257226 -2.466202 137.391083 -110.094810 -86.946487 173.981323 137.418976
18 -1.257226 -2.466202 137.391083 -128.880753 -85.919083 -165.034439 137.418976
[null_rope04_connect]
17 -1.259640 -2.480268 -137.844437 -110.094810 -86.946487 173.981323 137.872513
18 -1.259640 -2.480268 -137.844437 -128.880753 -85.919083 -165.034439 137.872513
[Rope3_Seg01]
17 0.000010 0.000013 -0.000051 -125.809898 32.695599 -63.938541 0.000053
18 0.000010 0.000011 -0.000045 -128.215439 28.934204 -68.425735 0.000047
[Rope3_Seg02]
17 139.999924 -0.000119 0.000060 0.447385 5.122551 9.498155 139.999924
18 139.999924 -0.000119 0.000060 0.458056 5.385258 8.527257 139.999924
[Rope3_Seg03]
17 139.999924 -0.000119 0.000119 0.496354 6.912859 12.841558 139.999924
18 139.999924 -0.000119 0.000119 0.781795 7.399344 11.639567 139.999924
[Rope3_Seg04]
17 139.999924 0.000119 0.000000 0.943752 12.655758 23.649693 139.999924
18 139.999924 0.000119 0.000000 2.495022 12.948656 19.987518 139.999924
[Rope3_Seg05]
17 139.999924 -0.000238 0.000060 -1.132386 2.126156 5.057708 139.999924
18 139.999924 -0.000238 0.000060 -0.764583 -1.546613 -0.764583 139.999924
[Rope3_Seg06]
17 139.999893 -0.000119 -0.000060 3.397368 -10.388084 -18.960796 139.999893
18 139.999893 -0.000119 -0.000060 1.275019 -12.151114 -16.383539 139.999893
[Rope3_Seg07]
17 139.999771 0.000060 -0.000119 1.695067 -7.886045 -13.073128 139.999771
18 139.999771 0.000060 -0.000119 0.598112 -5.577693 -7.142563 139.999771
[Rope3_Seg08]
17 139.999985 -0.000060 0.000000 0.829251 -4.222008 -6.575274 139.999985
18 139.999985 -0.000060 0.000000 0.557189 -3.309302 -4.146749 139.999985
[Rope3_Seg09]
17 90.185997 -0.000179 -0.000060 89.793228 -1.359877 -0.847183 90.185997
18 90.185997 -0.000179 -0.000060 89.793228 -1.359877 -0.847183 90.185997
[R_rear_hand01]
17 103.366196 -6.073594 -10.757982 -171.885513 23.373785 -59.632885 104.101845
18 103.366196 -6.073594 -10.757982 -174.043228 23.976637 -65.002998 104.101845
[R_rear_hand02]
17 100.509819 12.039542 -7.992327 -21.647255 32.954239 56.905464 101.543350
18 100.509819 12.039542 -7.992327 -18.533085 34.659092 62.503902 101.543350
[R_rear_hand03]
17 101.539970 5.215704 5.435467 78.870155 -59.127991 13.449200 101.819031
18 101.539970 5.215704 5.435467 76.952385 -63.971771 15.629117 101.819031
[Rope4_Seg01]
17 -0.000013 -0.000013 -0.000458 35.248474 19.794371 -137.671173 0.000458
18 -0.000012 -0.000011 -0.000477 36.927128 19.117180 -135.068039 0.000477
[Rope4_Seg02]
17 139.999985 0.000060 0.000119 0.088121 13.267978 4.553981 139.999985
18 139.999985 0.000060 0.000119 0.434389 10.542025 4.741580 139.999985
[Rope4_Seg03]
17 139.999924 0.000000 -0.000238 1.304326 20.009047 7.232300 139.999924
18 139.999924 0.000000 -0.000238 1.161899 16.618622 7.624257 139.999924
[Rope4_Seg04]
17 139.999985 0.000000 0.000119 6.086211 33.433064 14.405320 139.999985
18 139.999985 0.000000 0.000119 5.240037 33.324623 18.608589 139.999985
[Rope4_Seg05]
17 139.999802 -0.000060 -0.000119 2.604776 10.231798 2.942029 139.999802
18 139.999802 -0.000060 -0.000119 1.256749 10.304497 4.108497 139.999802
[Rope4_Seg06]
17 139.999924 0.000000 0.000060 0.691320 -15.357578 -6.812634 139.999924
18 139.999924 0.000000 0.000060 5.615442 -22.134045 -14.777295 139.999924
[Rope4_Seg07]
17 139.999802 0.000000 0.000000 2.226433 -24.927328 -11.159589 139.999802
18 139.999802 0.000000 0.000000 2.808123 -20.036667 -11.816267 139.999802
[Rope4_Seg08]
17 139.999924 0.000000 0.000119 -1.057855 -9.887341 -4.519969 139.999924
18 139.999924 0.000000 0.000119 -1.138299 -7.605747 -4.414716 139.999924
[Rope4_Seg09]
17 90.185791 0.000060 0.000060 -135.617828 2.228885 0.850567 90.185791
18 90.185791 0.000060 0.000060 -135.617828 2.228885 0.850567 90.185791
[L_rear_hand01]
17 101.696655 -8.392275 -7.654577 -14.676040 -36.272415 110.857796 102.329041
18 101.696655 -8.392275 -7.654577 -13.354956 -36.717747 108.641342 102.329041
[L_rear_hand02]
17 102.726799 -1.568258 5.773216 73.610291 69.437737 160.740738 102.900848
18 102.726799 -1.568258 5.773216 72.111618 71.190071 159.144638 102.900848
[L_rear_hand03]
17 104.552910 9.721220 -10.420293 -176.571304 -24.441328 -108.830574 105.519653
18 104.552910 9.721220 -10.420293 -177.406540 -24.537506 -106.814919 105.519653
